<svg width="44" height="44" viewBox="0 0 44 44" fill="none" xmlns="http://www.w3.org/2000/svg">
<path d="M43.5121 19.3359C43.5121 17.6467 42.4598 16.2079 40.9984 15.6825C40.7738 10.4417 38.8833 6.41987 35.3701 3.71723C32.1636 1.25065 27.7515 0 22.2561 0C16.7606 0 12.3485 1.25065 9.14207 3.71731C5.62884 6.41987 3.73838 10.4418 3.51378 15.6826C2.05234 16.2079 1 17.6467 1 19.3359C1 20.3257 1.36152 21.2293 1.95445 21.9141C1.36152 22.5988 1 23.5024 1 24.4922C1 26.1918 2.06529 27.6378 3.54068 28.1551C4.07491 34.0454 8.91274 38.6719 14.7832 38.6719H29.7289C35.5994 38.6719 40.4372 34.0454 40.9715 28.1551C42.4469 27.6378 43.5121 26.1918 43.5121 24.4922C43.5121 23.5024 43.1506 22.5988 42.5577 21.9141C43.1506 21.2293 43.5121 20.3257 43.5121 19.3359ZM22.2561 2C29.3994 2 38.5342 4.85719 39.1643 15.4688H5.3361C5.96622 4.85719 15.1128 2 22.2561 2ZM4.36991 17.5H22.2561H39.7757C40.4625 17.5 41.0212 18.6251 41.0212 19.3359C41.0212 20.0467 40.4625 21 39.7757 21H4.36991C3.68316 21 3.49095 20.0467 3.49095 19.3359C3.49095 18.6251 3.68316 17.5 4.36991 17.5ZM29.7289 36.5H14.7832C10.3571 36.5 6.68409 32.7265 6.07206 28.3594H7.22737C8.06001 28.3594 8.32313 28.6525 8.84723 29.2366C9.49139 29.9545 10.3736 30.9375 12.2923 30.9375C14.2245 30.9375 15.0837 29.9444 15.7111 29.2193C16.2065 28.6468 16.4551 28.3594 17.2742 28.3594C18.0933 28.3594 18.3419 28.6468 18.8372 29.2193C19.4646 29.9444 20.3238 30.9375 22.2561 30.9375C24.1883 30.9375 25.0475 29.9444 25.6749 29.2193C26.1703 28.6468 26.4189 28.3594 27.238 28.3594C28.0571 28.3594 28.3057 28.6468 28.801 29.2193C29.4284 29.9444 30.2876 30.9375 32.2199 30.9375C34.1521 30.9375 34.7427 29.9618 35.3701 29.2366C35.8654 28.6641 36.3826 28.3594 37.2017 28.3594H38.4401C37.8281 32.7265 34.1551 36.5 29.7289 36.5ZM39.7757 25.7812H37.2017C35.2695 25.7812 34.4103 26.7743 33.7829 27.4995C33.2876 28.072 33.039 28.3594 32.2199 28.3594C31.4008 28.3594 31.1522 28.072 30.6568 27.4995C30.0294 26.7743 29.1702 25.7812 27.238 25.7812C25.3057 25.7812 24.4465 26.7743 23.8191 27.4995C23.3238 28.072 23.0752 28.3594 22.2561 28.3594C21.437 28.3594 21.1884 28.072 20.693 27.4995C20.0656 26.7743 19.2064 25.7812 17.2742 25.7812C15.342 25.7812 14.4827 26.7743 13.8554 27.4995C13.36 28.072 13.1114 28.3594 12.2923 28.3594C11.4596 28.3594 10.6911 28.0836 10.167 27.4995C9.52287 26.7816 9.14606 25.7812 7.22737 25.7812H4.73642C4.04967 25.7812 3.49095 25.203 3.49095 24.4922C3.49095 23.7814 3.68316 22.802 4.36991 22.802H39.7757C40.4625 22.802 41.0212 23.7814 41.0212 24.4922C41.0212 25.203 40.4625 25.7812 39.7757 25.7812Z" fill="#363853"/>
<path d="M15.2546 13.8906C15.9424 13.8906 16.5 13.3135 16.5 12.6016C16.5 11.8896 15.9424 11.3125 15.2546 11.3125C14.5667 11.3125 14.0091 11.8896 14.0091 12.6016C14.0091 13.3135 14.5667 13.8906 15.2546 13.8906Z" fill="#363853"/>
<path d="M30.2003 13.8906C30.8881 13.8906 31.4457 13.3135 31.4457 12.6016C31.4457 11.8896 30.8881 11.3125 30.2003 11.3125C29.5124 11.3125 28.9548 11.8896 28.9548 12.6016C28.9548 13.3135 29.5124 13.8906 30.2003 13.8906Z" fill="#363853"/>
<path d="M25.2184 11.3125C25.9062 11.3125 26.4638 10.7354 26.4638 10.0234C26.4638 9.31151 25.9062 8.73438 25.2184 8.73438C24.5305 8.73438 23.9729 9.31151 23.9729 10.0234C23.9729 10.7354 24.5305 11.3125 25.2184 11.3125Z" fill="#363853"/>
<path d="M20.2365 8.73438C20.9244 8.73438 21.482 8.15724 21.482 7.44531C21.482 6.73338 20.9244 6.15625 20.2365 6.15625C19.5486 6.15625 18.991 6.73338 18.991 7.44531C18.991 8.15724 19.5486 8.73438 20.2365 8.73438Z" fill="#363853"/>
</svg>
